<svg width="145" height="46" viewBox="0 0 145 46" fill="none" xmlns="http://www.w3.org/2000/svg">
<rect x="0.5" y="1.16016" width="144" height="44" rx="5.5" fill="#000002" stroke="#000002"/>
<path d="M9 36.6602V33.366H15.5882V31.719C14.6824 31.719 13.9066 31.3962 13.2609 30.7505C12.6153 30.1049 12.293 29.3296 12.2941 28.4249V11.9543C12.2941 11.0484 12.6169 10.2726 13.2626 9.62698C13.9082 8.98134 14.6835 8.65906 15.5882 8.66016H41.9412C42.8471 8.66016 43.6228 8.98298 44.2685 9.62863C44.9141 10.2743 45.2364 11.0495 45.2353 11.9543V28.4249C45.2353 29.3307 44.9125 30.1065 44.2668 30.7522C43.6212 31.3978 42.846 31.7201 41.9412 31.719V33.366H48.5294V36.6602H9ZM15.5882 28.4249H41.9412V11.9543H15.5882V28.4249Z" fill="white"/>
<path d="M58.3523 11.5977V10.842H62.8551V11.5977H61.0398V16.6602H60.1648V11.5977H58.3523ZM63.3288 16.6602V12.2965H64.1499V12.9897H64.1953C64.2749 12.7549 64.415 12.5702 64.6158 12.4357C64.8184 12.2994 65.0476 12.2312 65.3033 12.2312C65.3563 12.2312 65.4188 12.2331 65.4908 12.2369C65.5646 12.2406 65.6224 12.2454 65.6641 12.2511V13.0636C65.63 13.0541 65.5694 13.0437 65.4822 13.0323C65.3951 13.0191 65.308 13.0124 65.2209 13.0124C65.0201 13.0124 64.8411 13.055 64.6839 13.1403C64.5286 13.2236 64.4055 13.3401 64.3146 13.4897C64.2237 13.6374 64.1783 13.806 64.1783 13.9954V16.6602H63.3288ZM67.0689 18.2965C66.942 18.2965 66.8265 18.2861 66.7223 18.2653C66.6181 18.2463 66.5405 18.2255 66.4893 18.2028L66.6939 17.5067C66.8492 17.5484 66.9875 17.5664 67.1087 17.5607C67.2299 17.555 67.3369 17.5096 67.4297 17.4244C67.5244 17.3391 67.6077 17.1999 67.6797 17.0067L67.7848 16.717L66.1882 12.2965H67.0973L68.2024 15.6829H68.2479L69.353 12.2965H70.2649L68.4666 17.2425C68.3833 17.4698 68.2772 17.6621 68.1484 17.8192C68.0196 17.9783 67.8662 18.0977 67.6882 18.1772C67.5102 18.2567 67.3037 18.2965 67.0689 18.2965ZM77.9446 10.842V16.6602H77.1378L74.1804 12.3931H74.1264V16.6602H73.2486V10.842H74.0611L77.0213 15.1147H77.0753V10.842H77.9446ZM80.995 16.7482C80.5859 16.7482 80.2289 16.6545 79.924 16.467C79.6191 16.2795 79.3823 16.0172 79.2138 15.68C79.0452 15.3429 78.9609 14.949 78.9609 14.4982C78.9609 14.0456 79.0452 13.6497 79.2138 13.3107C79.3823 12.9717 79.6191 12.7085 79.924 12.521C80.2289 12.3335 80.5859 12.2397 80.995 12.2397C81.4041 12.2397 81.7611 12.3335 82.0661 12.521C82.371 12.7085 82.6077 12.9717 82.7763 13.3107C82.9448 13.6497 83.0291 14.0456 83.0291 14.4982C83.0291 14.949 82.9448 15.3429 82.7763 15.68C82.6077 16.0172 82.371 16.2795 82.0661 16.467C81.7611 16.6545 81.4041 16.7482 80.995 16.7482ZM80.9979 16.0352C81.263 16.0352 81.4827 15.9651 81.657 15.8249C81.8312 15.6848 81.96 15.4982 82.0433 15.2653C82.1286 15.0323 82.1712 14.7757 82.1712 14.4954C82.1712 14.217 82.1286 13.9613 82.0433 13.7283C81.96 13.4935 81.8312 13.305 81.657 13.163C81.4827 13.021 81.263 12.9499 80.9979 12.9499C80.7308 12.9499 80.5092 13.021 80.3331 13.163C80.1589 13.305 80.0291 13.4935 79.9439 13.7283C79.8606 13.9613 79.8189 14.217 79.8189 14.4954C79.8189 14.7757 79.8606 15.0323 79.9439 15.2653C80.0291 15.4982 80.1589 15.6848 80.3331 15.8249C80.5092 15.9651 80.7308 16.0352 80.9979 16.0352ZM84.7905 16.6602L83.5064 12.2965H84.3842L85.2393 15.5011H85.282L86.1399 12.2965H87.0178L87.87 15.4869H87.9126L88.7621 12.2965H89.6399L88.3587 16.6602H87.4922L86.6058 13.5096H86.5405L85.6541 16.6602H84.7905Z" fill="white"/>
<path d="M61.9125 33.6602L58.3625 20.8602H60.3938L62.8875 30.7727H63.0063L65.6 20.8602H67.6125L70.2063 30.7789H70.325L72.8125 20.8602H74.85L71.2938 33.6602H69.35L66.6563 24.0727H66.5563L63.8625 33.6602H61.9125ZM79.6531 33.8539C78.7073 33.8539 77.8927 33.6518 77.2094 33.2477C76.5302 32.8393 76.0052 32.2664 75.6344 31.5289C75.2677 30.7872 75.0844 29.9185 75.0844 28.9227C75.0844 27.9393 75.2677 27.0727 75.6344 26.3227C76.0052 25.5727 76.5219 24.9872 77.1844 24.5664C77.851 24.1456 78.6302 23.9352 79.5219 23.9352C80.0635 23.9352 80.5885 24.0247 81.0969 24.2039C81.6052 24.3831 82.0615 24.6643 82.4656 25.0477C82.8698 25.431 83.1885 25.9289 83.4219 26.5414C83.6552 27.1497 83.7719 27.8893 83.7719 28.7602V29.4227H76.1406V28.0227H81.9406C81.9406 27.531 81.8406 27.0956 81.6406 26.7164C81.4406 26.3331 81.1594 26.031 80.7969 25.8102C80.4385 25.5893 80.0177 25.4789 79.5344 25.4789C79.0094 25.4789 78.551 25.6081 78.1594 25.8664C77.7719 26.1206 77.4719 26.4539 77.2594 26.8664C77.051 27.2747 76.9469 27.7185 76.9469 28.1977V29.2914C76.9469 29.9331 77.0594 30.4789 77.2844 30.9289C77.5135 31.3789 77.8323 31.7227 78.2406 31.9602C78.649 32.1935 79.126 32.3102 79.6719 32.3102C80.026 32.3102 80.349 32.2602 80.6406 32.1602C80.9323 32.056 81.1844 31.9018 81.3969 31.6977C81.6094 31.4935 81.7719 31.2414 81.8844 30.9414L83.6531 31.2602C83.5115 31.781 83.2573 32.2372 82.8906 32.6289C82.5281 33.0164 82.0719 33.3185 81.5219 33.5352C80.976 33.7477 80.3531 33.8539 79.6531 33.8539ZM85.9953 33.6602V20.8602H87.8641V25.6164H87.9766C88.0849 25.4164 88.2411 25.1852 88.4453 24.9227C88.6495 24.6602 88.9328 24.431 89.2953 24.2352C89.6578 24.0352 90.137 23.9352 90.7328 23.9352C91.5078 23.9352 92.1995 24.131 92.8078 24.5227C93.4161 24.9143 93.8932 25.4789 94.2391 26.2164C94.5891 26.9539 94.7641 27.8414 94.7641 28.8789C94.7641 29.9164 94.5911 30.806 94.2453 31.5477C93.8995 32.2852 93.4245 32.8539 92.8203 33.2539C92.2161 33.6497 91.5266 33.8477 90.7516 33.8477C90.1682 33.8477 89.6911 33.7497 89.3203 33.5539C88.9536 33.3581 88.6661 33.1289 88.4578 32.8664C88.2495 32.6039 88.0891 32.3706 87.9766 32.1664H87.8203V33.6602H85.9953ZM87.8266 28.8602C87.8266 29.5352 87.9245 30.1268 88.1203 30.6352C88.3161 31.1435 88.5995 31.5414 88.9703 31.8289C89.3411 32.1122 89.7953 32.2539 90.3328 32.2539C90.8911 32.2539 91.3578 32.106 91.7328 31.8102C92.1078 31.5102 92.3911 31.1039 92.5828 30.5914C92.7786 30.0789 92.8766 29.5018 92.8766 28.8602C92.8766 28.2268 92.7807 27.6581 92.5891 27.1539C92.4016 26.6497 92.1182 26.2518 91.7391 25.9602C91.3641 25.6685 90.8953 25.5227 90.3328 25.5227C89.7911 25.5227 89.3328 25.6622 88.9578 25.9414C88.587 26.2206 88.3057 26.6102 88.1141 27.1102C87.9224 27.6102 87.8266 28.1935 87.8266 28.8602ZM102.752 33.6602H100.702L105.308 20.8602H107.539L112.145 33.6602H110.095L106.477 23.1852H106.377L102.752 33.6602ZM103.095 28.6477H109.745V30.2727H103.095V28.6477ZM113.844 37.2602V24.0602H115.669V25.6164H115.825C115.933 25.4164 116.09 25.1852 116.294 24.9227C116.498 24.6602 116.781 24.431 117.144 24.2352C117.506 24.0352 117.985 23.9352 118.581 23.9352C119.356 23.9352 120.048 24.131 120.656 24.5227C121.265 24.9143 121.742 25.4789 122.088 26.2164C122.438 26.9539 122.613 27.8414 122.613 28.8789C122.613 29.9164 122.44 30.806 122.094 31.5477C121.748 32.2852 121.273 32.8539 120.669 33.2539C120.065 33.6497 119.375 33.8477 118.6 33.8477C118.017 33.8477 117.54 33.7497 117.169 33.5539C116.802 33.3581 116.515 33.1289 116.306 32.8664C116.098 32.6039 115.938 32.3706 115.825 32.1664H115.713V37.2602H113.844ZM115.675 28.8602C115.675 29.5352 115.773 30.1268 115.969 30.6352C116.165 31.1435 116.448 31.5414 116.819 31.8289C117.19 32.1122 117.644 32.2539 118.181 32.2539C118.74 32.2539 119.206 32.106 119.581 31.8102C119.956 31.5102 120.24 31.1039 120.431 30.5914C120.627 30.0789 120.725 29.5018 120.725 28.8602C120.725 28.2268 120.629 27.6581 120.438 27.1539C120.25 26.6497 119.967 26.2518 119.588 25.9602C119.213 25.6685 118.744 25.5227 118.181 25.5227C117.64 25.5227 117.181 25.6622 116.806 25.9414C116.435 26.2206 116.154 26.6102 115.963 27.1102C115.771 27.6102 115.675 28.1935 115.675 28.8602ZM124.706 37.2602V24.0602H126.531V25.6164H126.688C126.796 25.4164 126.952 25.1852 127.156 24.9227C127.36 24.6602 127.644 24.431 128.006 24.2352C128.369 24.0352 128.848 23.9352 129.444 23.9352C130.219 23.9352 130.91 24.131 131.519 24.5227C132.127 24.9143 132.604 25.4789 132.95 26.2164C133.3 26.9539 133.475 27.8414 133.475 28.8789C133.475 29.9164 133.302 30.806 132.956 31.5477C132.61 32.2852 132.135 32.8539 131.531 33.2539C130.927 33.6497 130.238 33.8477 129.463 33.8477C128.879 33.8477 128.402 33.7497 128.031 33.5539C127.665 33.3581 127.377 33.1289 127.169 32.8664C126.96 32.6039 126.8 32.3706 126.688 32.1664H126.575V37.2602H124.706ZM126.538 28.8602C126.538 29.5352 126.635 30.1268 126.831 30.6352C127.027 31.1435 127.31 31.5414 127.681 31.8289C128.052 32.1122 128.506 32.2539 129.044 32.2539C129.602 32.2539 130.069 32.106 130.444 31.8102C130.819 31.5102 131.102 31.1039 131.294 30.5914C131.49 30.0789 131.588 29.5018 131.588 28.8602C131.588 28.2268 131.492 27.6581 131.3 27.1539C131.113 26.6497 130.829 26.2518 130.45 25.9602C130.075 25.6685 129.606 25.5227 129.044 25.5227C128.502 25.5227 128.044 25.6622 127.669 25.9414C127.298 26.2206 127.017 26.6102 126.825 27.1102C126.633 27.6102 126.538 28.1935 126.538 28.8602Z" fill="white"/>
</svg>
